<svg width="285" height="285" viewBox="0 0 285 285" fill="none" xmlns="http://www.w3.org/2000/svg">
<rect y="285" width="285" height="285" rx="142.5" transform="rotate(-90 0 285)" fill="#3451B2"/>
<g style="mix-blend-mode:luminosity">
<path d="M57.2603 74.623C56.5114 71.3846 57.3765 67.849 59.8599 65.2988L97.024 27.1367C98.9237 25.186 101.532 24.0851 104.254 24.085H180.892C183.615 24.085 186.223 25.1861 188.123 27.1367L225.288 65.2988C227.772 67.8502 228.638 71.3882 227.887 74.6279V72.0254C227.887 69.2386 225.628 66.9795 222.841 66.9795H62.3062C59.5195 66.9797 57.2605 69.2387 57.2603 72.0254V74.623Z" fill="white"/>
<path d="M190.199 143.936C187.412 143.936 185.152 141.676 185.152 138.889V66.9798H222.999C225.786 66.9798 228.046 69.2391 228.046 72.0261V138.889C228.046 141.676 225.786 143.936 222.999 143.936H190.199Z" fill="#EAEAEA"/>
<path d="M62.1489 143.936C59.362 143.936 57.1027 141.676 57.1027 138.889V72.0261C57.1027 69.2391 59.362 66.9798 62.1489 66.9798H99.996V138.889C99.996 141.676 97.7367 143.936 94.9497 143.936H62.1489Z" fill="#EAEAEA"/>
</g>
<path d="M57.1045 92.8727C57.1046 95.5224 58.1266 97.9334 59.7969 99.734L188.255 228.192C190.225 230.163 190.226 233.358 188.255 235.329L165.062 258.522C163.091 260.493 159.895 260.493 157.925 258.522L62.0391 162.637C58.961 159.009 57.1045 154.31 57.1045 149.179V97.0407V94.9567V92.8727Z" fill="url(#paint0_linear_555_125)"/>
<path d="M228.041 97.0405L228.04 97.0415V92.8735C228.04 95.5288 227.014 97.9438 225.337 99.7456L96.8897 228.192C94.9193 230.163 94.9191 233.358 96.8897 235.329L120.084 258.522C122.055 260.492 125.249 260.492 127.22 258.522L223.116 162.626C226.188 158.999 228.041 154.306 228.041 149.181V97.0425V97.0405Z" fill="white"/>
<defs>
<linearGradient id="paint0_linear_555_125" x1="49.791" y1="132.5" x2="199.291" y2="196" gradientUnits="userSpaceOnUse">
<stop stop-color="white"/>
<stop offset="1" stop-color="#EAEAEA"/>
</linearGradient>
</defs>
</svg>
